<?xml version="1.0" encoding="UTF-8" standalone="no" ?>
<!DOCTYPE svg PUBLIC "-//W3C//DTD SVG 1.1//EN" "http://www.w3.org/Graphics/SVG/1.1/DTD/svg11.dtd">
<svg xmlns="http://www.w3.org/2000/svg" xmlns:xlink="http://www.w3.org/1999/xlink" version="1.1" width="62" height="62" viewBox="221 181 62 62" xml:space="preserve">
<desc>Created with Fabric.js 4.6.0</desc>
<defs>
</defs>
<g transform="matrix(1 0 0 1 251.94 211.58)" id="0XgK_in50W5_fu1WExk7-"  >
<path style="stroke: none; stroke-width: 1; stroke-dasharray: none; stroke-linecap: butt; stroke-dashoffset: 0; stroke-linejoin: miter; stroke-miterlimit: 4; fill: rgb(179,181,179); fill-rule: nonzero; opacity: 1;" vector-effect="non-scaling-stroke"  transform=" translate(-25, -25)" d="M 40.00113 24.1811 L 25.817490000000003 24.1811 L 25.817490000000003 15.664200000000001 C 30.376170000000002 15.5433 34.228660000000005 14.427900000000001 37.22744 13.116900000000001 C 38.96053 16.505300000000002 39.88933 20.204 40.00113 24.1812 z M 25.81749 1.2997 L 25.81749 14.025 C 29.97747 13.9098 33.53936 12.9251 36.42995 11.6725 C 35.328649999999996 9.8235 33.976859999999995 8.072899999999999 32.37367 6.4262999999999995 C 29.827479999999998 3.8112999999999992 27.254989999999996 2.131499999999999 25.817499999999995 1.2996999999999996 z M 24.1825 24.1811 L 24.1825 15.664200000000001 C 19.623820000000002 15.5433 15.77133 14.427900000000001 12.77255 13.116900000000001 C 11.03946 16.505300000000002 10.110660000000001 20.204 9.99886 24.181800000000003 L 24.1826 24.181800000000003 z M 17.62633 6.4262 C 16.02194 8.0734 14.66884 9.8254 13.56765 11.6761 C 16.372040000000002 12.8843 19.95572 13.905899999999999 24.18261 14.0242 L 24.18261 1.2995 C 22.74512 2.1313 20.17263 3.8111 17.62634 6.4261 z M 41.63742 25.8196 C 41.53242 29.687900000000003 40.679919999999996 33.3626 39.098729999999996 36.7524 C 38.97062999999999 37.028 38.835629999999995 37.3011 38.69743 37.572900000000004 C 39.457429999999995 37.9543 40.148019999999995 38.3395 40.765519999999995 38.7122 C 42.153009999999995 39.549600000000005 43.291109999999996 40.3845 44.17240999999999 41.101 C 47.65489999999999 36.9402 49.81358999999999 31.6302 49.99988999999999 25.8202 L 41.63741999999999 25.8202 z M 8.36257 24.1811 C 8.46817 20.3128 9.32067 16.6381 10.90126 13.2483 C 11.02996 12.9727 11.16436 12.6996 11.30246 12.427800000000001 C 10.54246 12.046400000000002 9.85187 11.661200000000001 9.23437 11.2885 C 7.8468800000000005 10.4511 6.708780000000001 9.616200000000001 5.8274799999999995 8.899700000000001 C 2.3449899999999997 13.061100000000001 0.18629999999999924 18.3711 -8.881784197001252e-16 24.1811 z M 24.1825 25.8196 L 9.99876 25.8196 C 10.110660000000001 29.7968 11.03936 33.495400000000004 12.77255 36.8839 C 15.77134 35.573 19.62442 34.457499999999996 24.1825 34.3366 z M 11.30255 37.5728 C 11.16445 37.301 11.02945 37.0279 10.90135 36.7523 C 9.320060000000002 33.361999999999995 8.46766 29.6878 8.36256 25.819499999999998 L 0.00009000000000014552 25.819499999999998 C 0.18639000000000014 31.629399999999997 2.3450800000000003 36.939499999999995 5.827570000000001 41.1003 C 6.708870000000001 40.383799999999994 7.846960000000001 39.548899999999996 9.23446 38.7115 C 9.85196 38.3395 10.54255 37.9537 11.30255 37.572900000000004 z M 16.50003 44.7638 C 14.765039999999999 42.9894 13.289439999999999 41.0634 12.091949999999999 39.0178 C 9.87826 40.1271 8.141969999999999 41.3472 6.923869999999999 42.328 C 11.079449999999998 46.680400000000006 16.78443 49.534000000000006 23.150709999999997 50 C 21.600119999999997 49.0868 19.060129999999997 47.3825 16.500139999999995 44.7638 z M 10.13256 9.9181 C 10.71636 10.2682 11.36886 10.6315 12.08755 10.9898 C 13.28565 8.9417 14.76314 7.013800000000001 16.500030000000002 5.2369 C 19.06002 2.6188000000000002 21.600010000000005 0.9140000000000006 23.150600000000004 0.000700000000000145 C 16.783130000000003 0.46670000000000017 11.076950000000004 3.3215000000000003 6.921260000000004 7.6758 C 7.755060000000004 8.3497 8.830650000000004 9.1358 10.132550000000004 9.918099999999999 z M 39.86743 40.0826 C 39.28373 39.7325 38.63113 39.3692 37.91244 39.0109 C 36.71434 41.059 35.23685 42.9869 33.499959999999994 44.7638 C 30.939969999999995 47.3819 28.399979999999992 49.0867 26.849389999999993 50 C 33.217459999999996 49.5334 38.923739999999995 46.6785 43.07932999999999 42.3249 C 42.24492999999999 41.650999999999996 41.16933999999999 40.8649 39.867439999999995 40.0826 z M 33.49996 5.2368 C 35.234950000000005 7.0112 36.71055 8.9372 37.90804 10.982800000000001 C 40.12173 9.873500000000002 41.858019999999996 8.653400000000001 43.07552 7.672600000000001 C 38.920539999999995 3.3202000000000007 33.215559999999996 0.46660000000000057 26.849379999999996 8.881784197001252e-16 C 28.399969999999996 0.9139000000000009 30.939959999999996 2.618700000000001 33.49995 5.236800000000001 z M 25.81749 25.8196 L 25.81749 34.3365 C 30.37617 34.4574 34.22866 35.5728 37.22744 36.8838 C 38.96053 33.495400000000004 39.88933 29.7967 40.00113 25.8195 z M 32.37376 43.5744 C 33.97815 41.9272 35.33125 40.1752 36.432539999999996 38.3245 C 33.62815 37.1163 30.044469999999997 36.0947 25.817579999999996 35.9764 L 25.817579999999996 48.7011 C 27.255069999999996 47.869299999999996 29.827559999999995 46.189499999999995 32.37385 43.5745 z M 40.76493 11.2885 C 40.14743 11.661200000000001 39.45684 12.0463 38.69684 12.427800000000001 C 38.83494 12.699600000000002 38.96994 12.972700000000001 39.09814 13.2483 C 40.67933 16.6386 41.53183 20.3128 41.63693 24.1811 L 50 24.1811 C 49.8137 18.3712 47.65501 13.061100000000001 44.17252 8.900300000000001 C 43.29132 9.616200000000001 42.15313 10.451100000000002 40.765029999999996 11.2885 z M 24.1825 48.701 L 24.1825 35.9757 C 20.02252 36.090900000000005 16.460630000000002 37.0756 13.57004 38.3282 C 14.67134 40.1772 16.023130000000002 41.927800000000005 17.62622 43.574400000000004 C 20.17251 46.189400000000006 22.745 47.869200000000006 24.18249 48.70100000000001 z" stroke-linecap="round" />
</g>
</svg>